<?xml version="1.0" encoding="UTF-8" standalone="no"?>
<!DOCTYPE svg PUBLIC "-//W3C//DTD SVG 1.1//EN" "http://www.w3.org/Graphics/SVG/1.1/DTD/svg11.dtd">
<svg width="100%" height="100%" viewBox="0 0 348 430" version="1.1" xmlns="http://www.w3.org/2000/svg" xmlns:xlink="http://www.w3.org/1999/xlink" xml:space="preserve" xmlns:serif="http://www.serif.com/" style="fill-rule:evenodd;clip-rule:evenodd;stroke-linejoin:round;stroke-miterlimit:1.41421;">
    <g transform="matrix(1,0,0,1,-164,-320.3)">
        <path d="M340.7,502.1C342.2,499.6 343.7,497.1 344.8,494.4C345.5,492.7 346.3,490.9 346.8,489.2C349.2,482.5 350.4,475.3 350.4,467.9C350.4,450.9 343.9,435.6 333.4,424.1C330.7,421 327.6,418.3 324.2,415.7C313.4,407.5 299.8,402.7 285.2,402.7C278.7,402.7 272.5,403.6 266.7,405.3C266.1,405.4 265.3,405.8 264.8,405.9C262.8,406.6 260.7,407.4 258.8,408.3C255.8,409.7 253,411 250.4,412.8C249.8,413.3 249,413.7 248.5,414.2C231.4,425.9 220.2,445.6 220.2,467.9C220.2,486.9 228.4,504 241.3,515.8C241.8,516.3 242.2,516.5 242.7,516.9C243.3,517.5 244.1,517.9 244.6,518.5C255.9,527.6 270,533 285.7,533C308.9,532.8 329.2,520.4 340.7,502.1Z" style="fill:white;fill-rule:nonzero;"/>
    </g>
    <g transform="matrix(1,0,0,1,-164,-320.3)">
        <path d="M338.1,491.3C337.1,493.6 335.8,496 334.5,498.1C335.8,495.9 337,493.6 338.1,491.3Z" style="fill:none;"/>
        <path d="M227.6,467.6C227.6,447.8 237.6,430.3 252.7,419.9C237.5,430.4 227.6,447.8 227.6,467.6C227.6,484.4 234.9,499.6 246.3,510C234.8,499.6 227.6,484.4 227.6,467.6Z" style="fill:none;"/>
        <path d="M339.9,486.6C341.9,480.7 343.1,474.3 343.1,467.7C343.1,452.7 337.4,439.1 328.1,428.9C337.4,439.1 343.1,452.8 343.1,467.7C343.2,474.3 342.1,480.7 339.9,486.6Z" style="fill:none;"/>
        <path d="M267.3,412.7C267.9,412.6 268.4,412.4 269,412.1C268.3,412.4 267.9,412.5 267.3,412.7Z" style="fill:none;"/>
        <path d="M249.1,512.5C248.5,511.9 248,511.6 247.4,511C247.9,511.6 248.4,512.1 249.1,512.5Z" style="fill:none;"/>
        <path d="M254.4,418.9C256.9,417.3 259.3,416.1 261.9,414.9C259.4,415.9 256.7,417.3 254.4,418.9Z" style="fill:none;"/>
        <circle cx="391" cy="396.3" r="6" style="fill:none;"/>
        <circle cx="307.7" cy="482.5" r="19.1" style="fill:rgb(63,68,67);"/>
        <path d="M364.8,609.6L359.9,355.5C350.2,355.3 324.5,352.9 306.4,340.5C289.1,328.6 273.2,323.9 265.4,322.4L269.8,359.9L235.7,352.6L245,382.9L275.9,379.3L248,399.8C209.7,433.3 187.8,482.5 187.8,533C187.8,533 187.6,586.2 177.1,629.5C174,642.2 169.5,658.4 166.5,676.6C194.4,707 230.6,729.5 271.6,740.7C281.2,669.9 362.9,610.3 364.8,609.6ZM285.3,525.5C271.5,525.5 258.9,520.7 248.9,512.6C248.3,512 247.8,511.7 247.2,511.1C246.9,510.8 246.4,510.4 246.1,510.1C234.6,499.5 227.4,484.5 227.4,467.7C227.4,447.9 237.4,430.4 252.5,420C253.1,419.7 253.6,419.2 254.2,418.9C256.7,417.3 259.1,416.1 261.7,414.9C263.4,414.1 265.2,413.4 267,412.9C267.6,412.8 268.1,412.6 268.7,412.3C273.9,410.7 279.4,410 285.1,410C298.1,410 310.1,414.3 319.7,421.5C322.7,423.7 325.4,426.2 327.9,429C337.2,439.2 342.9,452.9 342.9,467.8C342.9,474.4 341.8,480.9 339.7,486.7C339.1,488.3 338.6,489.8 337.9,491.4C336.9,493.7 335.6,496.1 334.3,498.2C324.3,514.5 306.1,525.5 285.3,525.5Z" style="fill:rgb(201,73,106);fill-rule:nonzero;"/>
        <path d="M252.6,419.9C253.2,419.6 253.7,419.1 254.3,418.8C253.9,419.1 253.2,419.6 252.6,419.9Z" style="fill:rgb(246,91,131);fill-rule:nonzero;"/>
        <path d="M247.4,511.1C247.1,510.8 246.6,510.4 246.3,510.1C246.6,510.5 247,510.8 247.4,511.1Z" style="fill:rgb(246,91,131);fill-rule:nonzero;"/>
        <path d="M261.9,414.8C263.6,414 265.4,413.3 267.2,412.8C265.4,413.3 263.7,414 261.9,414.8Z" style="fill:rgb(246,91,131);fill-rule:nonzero;"/>
        <path d="M320,421.4C310.4,414.1 298.4,409.9 285.4,409.9C279.7,409.9 274.1,410.7 269,412.2C274.2,410.6 279.7,409.9 285.4,409.9C298.4,409.8 310.3,414.1 320,421.4Z" style="fill:rgb(246,91,131);fill-rule:nonzero;"/>
        <path d="M339.9,486.6C339.3,488.2 338.8,489.7 338.1,491.3C338.8,489.7 339.5,488.2 339.9,486.6Z" style="fill:rgb(246,91,131);fill-rule:nonzero;"/>
        <path d="M285.3,525.5C271.5,525.5 258.9,520.7 248.9,512.6C259,520.5 271.6,525.5 285.3,525.5C306,525.5 324.1,514.6 334.3,498.2C324.3,514.5 306.1,525.5 285.3,525.5Z" style="fill:rgb(246,91,131);fill-rule:nonzero;"/>
        <path d="M380,524L377.5,587.6C410.7,585.7 435.2,561.4 439.7,530.3C419.1,531.9 399.5,528.5 380,524Z" style="fill:rgb(240,180,57);fill-rule:nonzero;"/>
        <path d="M464.3,421.4C440.9,395.8 412.6,379.1 377.5,374.8L375.6,512.8L502.6,516.7C501.6,483.5 488,447.3 464.3,421.4ZM391,402.3C387.6,402.3 385,399.6 385,396.3C385,392.9 387.7,390.3 391,390.3C394.3,390.3 397,393 397,396.3C397,399.7 394.3,402.3 391,402.3Z" style="fill:rgb(240,180,57);fill-rule:nonzero;"/>
        <path d="M288.8,744.5C301.9,747 315.2,748.1 329.1,748.1C374,748.1 415.8,734.7 450.6,711.6L371.6,618.5C356.4,630.3 292.6,683.1 288.8,744.5Z" style="fill:rgb(64,68,129);fill-rule:nonzero;"/>
    </g>
</svg>
